<svg aria-hidden="true" style="position: absolute; width: 0; height: 0; overflow: hidden;" version="1.1" xmlns="http://www.w3.org/2000/svg" xmlns:xlink="http://www.w3.org/1999/xlink">
<defs>
<symbol id="icon-quote" viewBox="0 0 37 32">
<path fill="none" stroke="#4f62f6" style="stroke: var(--color1, #4f62f6)" stroke-linejoin="miter" stroke-linecap="butt" stroke-miterlimit="4" stroke-width="1.0667" d="M15.331 0.533v13.074c0 4.776-1.31 8.572-3.681 11.382-2.369 2.809-5.757 4.585-9.825 5.4l-0.637 0.128v-7.236l0.409-0.097c2.344-0.559 3.94-1.663 4.958-3.121 0.938-1.344 1.413-3.033 1.486-4.967h-7.508v-14.564h14.798zM36.8 0.533v13.074c-0 4.773-1.282 8.569-3.64 11.381-2.357 2.81-5.746 4.586-9.868 5.401l-0.636 0.126v-7.234l0.409-0.097c2.344-0.559 3.94-1.663 4.958-3.121 0.938-1.344 1.413-3.033 1.486-4.967h-7.508v-14.564h14.798z"></path>
</symbol>
<symbol id="icon-arrow-right" viewBox="0 0 32 32">
<path d="M13.122 9.568c-0.206-0.208-0.322-0.489-0.322-0.782s0.116-0.574 0.322-0.782c0.101-0.103 0.222-0.184 0.355-0.24s0.276-0.084 0.42-0.084c0.144 0 0.287 0.029 0.42 0.084s0.254 0.137 0.355 0.24l6.128 6.253c0.206 0.209 0.321 0.49 0.321 0.783s-0.115 0.575-0.321 0.783l-6.128 6.253c-0.101 0.103-0.222 0.184-0.355 0.24s-0.276 0.084-0.42 0.084c-0.144 0-0.287-0.029-0.42-0.084s-0.254-0.137-0.355-0.24c-0.206-0.208-0.322-0.489-0.322-0.782s0.116-0.574 0.322-0.782l5.026-5.474-5.026-5.469z"></path>
</symbol>
<symbol id="icon-arrow-left" viewBox="0 0 32 32">
<path d="M18.878 9.568c0.206-0.208 0.322-0.489 0.322-0.782s-0.116-0.574-0.322-0.782c-0.101-0.103-0.222-0.184-0.355-0.24s-0.276-0.084-0.42-0.084c-0.144 0-0.287 0.029-0.42 0.084s-0.254 0.137-0.355 0.24l-6.128 6.253c-0.206 0.209-0.321 0.49-0.321 0.783s0.115 0.575 0.321 0.783l6.128 6.253c0.101 0.103 0.222 0.184 0.355 0.24s0.276 0.084 0.42 0.084c0.144 0 0.287-0.029 0.42-0.084s0.254-0.137 0.355-0.24c0.206-0.208 0.322-0.489 0.322-0.782s-0.116-0.574-0.322-0.782l-5.026-5.474 5.026-5.469z"></path>
</symbol>
<symbol id="icon-arrow-down" viewBox="0 0 32 32">
<path d="M21.469 12.574c0.208-0.206 0.489-0.322 0.782-0.322s0.574 0.116 0.782 0.322c0.103 0.101 0.184 0.222 0.24 0.355s0.084 0.276 0.084 0.42c0 0.144-0.029 0.287-0.084 0.42s-0.137 0.254-0.24 0.355l-6.253 6.128c-0.209 0.206-0.49 0.321-0.783 0.321s-0.575-0.116-0.783-0.321l-6.253-6.128c-0.103-0.101-0.184-0.222-0.24-0.355s-0.084-0.276-0.084-0.42c0-0.144 0.029-0.287 0.084-0.42s0.137-0.254 0.24-0.355c0.208-0.206 0.489-0.322 0.782-0.322s0.574 0.116 0.782 0.322l5.474 5.026 5.469-5.026z"></path>
</symbol>
<symbol id="icon-plus" viewBox="0 0 32 32">
<path d="M16 7c0.265 0 0.52 0.105 0.707 0.293s0.293 0.442 0.293 0.707v8c0 0.265-0.105 0.52-0.293 0.707s-0.442 0.293-0.707 0.293h-8c-0.265 0-0.52-0.105-0.707-0.293s-0.293-0.442-0.293-0.707c0-0.265 0.105-0.52 0.293-0.707s0.442-0.293 0.707-0.293h7v-7c0-0.265 0.105-0.52 0.293-0.707s0.442-0.293 0.707-0.293z"></path>
<path d="M15 16c0-0.265 0.105-0.52 0.293-0.707s0.442-0.293 0.707-0.293h8c0.265 0 0.52 0.105 0.707 0.293s0.293 0.442 0.293 0.707c0 0.265-0.105 0.52-0.293 0.707s-0.442 0.293-0.707 0.293h-7v7c0 0.265-0.105 0.52-0.293 0.707s-0.442 0.293-0.707 0.293c-0.265 0-0.52-0.105-0.707-0.293s-0.293-0.442-0.293-0.707v-8z"></path>
</symbol>
<symbol id="icon-close" viewBox="0 0 32 32">
<path d="M22.364 9.636c0.188 0.188 0.293 0.442 0.293 0.707s-0.105 0.52-0.293 0.707l-5.657 5.657c-0.188 0.188-0.442 0.293-0.707 0.293s-0.52-0.105-0.707-0.293l-5.657-5.657c-0.188-0.188-0.293-0.442-0.293-0.707s0.105-0.52 0.293-0.707 0.442-0.293 0.707-0.293c0.265 0 0.52 0.105 0.707 0.293l4.95 4.95 4.95-4.95c0.188-0.188 0.442-0.293 0.707-0.293s0.52 0.105 0.707 0.293z"></path>
<path d="M15.293 15.293c0.188-0.188 0.442-0.293 0.707-0.293s0.52 0.105 0.707 0.293l5.657 5.657c0.188 0.188 0.293 0.442 0.293 0.707s-0.105 0.52-0.293 0.707c-0.188 0.188-0.442 0.293-0.707 0.293s-0.52-0.105-0.707-0.293l-4.95-4.95-4.95 4.95c-0.188 0.188-0.442 0.293-0.707 0.293s-0.52-0.105-0.707-0.293-0.293-0.442-0.293-0.707c0-0.265 0.105-0.52 0.293-0.707l5.657-5.657z"></path>
</symbol>
<symbol id="icon-burger-menu" viewBox="0 0 32 32">
<path d="M26.733 14.667h-21.467c-0.7 0-1.267 0.567-1.267 1.267v0.133c0 0.7 0.567 1.267 1.267 1.267h21.467c0.7 0 1.267-0.567 1.267-1.267v-0.133c0-0.7-0.567-1.267-1.267-1.267z"></path>
<path d="M26.733 21.333h-21.467c-0.7 0-1.267 0.567-1.267 1.267v0.133c0 0.7 0.567 1.267 1.267 1.267h21.467c0.7 0 1.267-0.567 1.267-1.267v-0.133c0-0.7-0.567-1.267-1.267-1.267z"></path>
<path d="M26.733 8h-21.467c-0.7 0-1.267 0.567-1.267 1.267v0.133c0 0.7 0.567 1.267 1.267 1.267h21.467c0.7 0 1.267-0.567 1.267-1.267v-0.133c0-0.7-0.567-1.267-1.267-1.267z"></path>
</symbol>
<symbol id="icon-books" viewBox="0 0 36 32">
<path d="M7 4h-6c-0.55 0-1 0.45-1 1v22c0 0.55 0.45 1 1 1h6c0.55 0 1-0.45 1-1v-22c0-0.55-0.45-1-1-1zM6 10h-4v-2h4v2z"></path>
<path d="M17 4h-6c-0.55 0-1 0.45-1 1v22c0 0.55 0.45 1 1 1h6c0.55 0 1-0.45 1-1v-22c0-0.55-0.45-1-1-1zM16 10h-4v-2h4v2z"></path>
<path d="M23.909 5.546l-5.358 2.7c-0.491 0.247-0.691 0.852-0.443 1.343l8.999 17.861c0.247 0.491 0.852 0.691 1.343 0.443l5.358-2.7c0.491-0.247 0.691-0.852 0.443-1.343l-8.999-17.861c-0.247-0.491-0.852-0.691-1.343-0.443z"></path>
</symbol>
</defs>
</svg>
